<svg id="FPG_logo_white" viewBox="0 0 197 65" xmlns="http://www.w3.org/2000/svg" width="260" height="86">
	<path fill="#c6994b" class="abst0" d="M59.3 10H31.9c-2.8 0-5.3 1.7-6.2 4.4L15 43.5c-1 2.6-3.4 4.3-6.2 4.3h27.4c2.8 0 5.3-1.7 6.2-4.4L53 14.2c1.1-2.5 3.5-4.2 6.3-4.2z"></path>
	<path fill="#cebd8b" class="abst1" d="M23.7 13.6c1.2-3.4 4.5-5.7 8.2-5.7h2.7l1.6-4.3C37 1.4 39 0 41.2 0H18.7c-2.3 0-4.3 1.4-5.1 3.6L5.1 27.4C4.3 29.5 2.3 31 0 31h17.4l6.3-17.4z"></path>
	<path fill="#fff" class="abst2" d="M66.9 23.1h.8c.6 0 1.1.1 1.5.2.5.2.9.4 1.2.7.3.3.6.7.8 1.1.2.4.3.9.3 1.5s-.1 1.1-.3 1.5c-.2.4-.5.8-.8 1.1-.3.3-.8.5-1.2.7-.5.2-1 .2-1.5.2h-.8v1.2h-2.1v-1.2H64c-.6 0-1.1-.1-1.5-.2-.5-.2-.9-.4-1.2-.7-.3-.3-.6-.7-.8-1.1-.2-.4-.3-.9-.3-1.5s.1-1.1.3-1.5c.2-.4.5-.8.8-1.1.3-.3.8-.5 1.2-.7.5-.2.9-.2 1.5-.2h.8v-1.2h2.1v1.2zm-2.8 1.8c-.6 0-1 .2-1.3.5-.3.3-.5.7-.5 1.3 0 .5.2 1 .5 1.3.3.3.8.4 1.3.4h.8v-3.5h-.8zm3.5 3.5c.6 0 1-.2 1.3-.5.3-.3.5-.7.5-1.3 0-.5-.2-1-.5-1.3-.3-.3-.8-.4-1.3-.4h-.8v3.5h.8zM80.2 22.2c.6.2 1.1.6 1.6 1 .4.4.8.9 1 1.5.2.6.4 1.2.4 1.9s-.1 1.3-.4 1.9c-.2.6-.6 1.1-1 1.5-.4.4-1 .8-1.6 1-.6.3-1.3.4-2 .4s-1.4-.1-2-.4c-.6-.2-1.1-.6-1.6-1-.4-.4-.8-1-1-1.5-.2-.6-.4-1.2-.4-1.9s.1-1.3.4-1.9c.2-.6.6-1.1 1-1.5.4-.4 1-.8 1.6-1 .6-.3 1.3-.4 2-.4s1.4.2 2 .4zM77 23.9c-.4.2-.7.4-.9.6l-.6.9c-.1.4-.2.8-.2 1.2 0 .4.1.8.2 1.2.1.4.3.7.6 1 .3.3.6.5.9.6.4.2.8.2 1.2.2.5 0 .9-.1 1.2-.2.4-.2.7-.4.9-.6.2-.3.4-.6.6-1 .1-.4.2-.7.2-1.2 0-.4-.1-.8-.2-1.2-.1-.4-.3-.7-.6-1-.2-.3-.5-.5-.9-.6-.4-.1-.8-.2-1.2-.2l-1.2.3zM87.4 25.7h4.1V22h2.1v9.3h-2.1v-3.7h-4.1v3.7h-2.1V22h2.1v3.7zM104.7 29.5h1.4v.6l-.2 3.3H104l-.1-1.9h-6.3l-.1 1.9h-1.9l-.1-3.2v-.6h.4c.2 0 .4-.1.6-.2.2-.1.4-.4.5-.7.3-.6.4-1.3.5-2.2.1-.9.2-1.9.2-2.9V22h7v7.5zm-5.2-2.2c-.2.9-.4 1.7-.6 2.2h3.8v-5.6h-2.9c-.1 1.3-.2 2.4-.3 3.4zM68.8 48.1h-2.1v-7.4h-4v7.4h-2.1v-9.3h8.2v9.3zM77.1 39c.5.2.8.4 1.2.7.3.3.6.6.8 1.1.2.4.3.9.3 1.4 0 .5-.1 1-.3 1.4s-.5.8-.8 1.1c-.3.3-.8.5-1.2.7-.5.2-1 .2-1.5.2h-1.9v2.5h-2.1v-9.3h4.1c.4 0 .9 0 1.4.2zm-1.7 4.7c.6 0 1-.1 1.3-.4.3-.3.5-.7.5-1.1 0-.5-.1-.8-.4-1.1-.3-.3-.7-.4-1.3-.4h-2v3.1h1.9zM88.2 40.6h-4.9v1.8h4.4v1.8h-4.4v2h5.2v1.9h-7.2v-9.3h7v1.8zM95.5 42.2c.2-.2.3-.4.3-.7 0-.4-.1-.6-.4-.8-.2-.2-.6-.3-1.2-.3-.9 0-1.7.3-2.5.9l-1.1-1.4c.5-.4 1.1-.8 1.7-1 .6-.2 1.3-.3 2-.3.6 0 1.1.1 1.5.2.4.1.8.3 1.1.5.3.2.5.5.7.8.2.3.2.7.2 1.1 0 .4-.1.8-.2 1.1-.2.3-.4.6-.7.8v.1c.4.1.8.4 1 .8.3.4.4.8.4 1.3 0 .4-.1.8-.3 1.2-.2.4-.4.7-.8 1-.3.3-.8.5-1.3.6-.5.2-1.1.2-1.8.2-.4 0-.8 0-1.2-.1-.4-.1-.7-.1-1-.2-.3-.1-.6-.3-.9-.4l-.9-.6 1.1-1.5c.5.4 1 .6 1.4.8.5.2 1 .2 1.6.2.6 0 1.1-.1 1.4-.3.3-.2.5-.5.5-.9 0-.7-.4-1-1.3-1h-2.4v-1.8h2.1c.5-.1.8-.2 1-.3zM102.4 45l4.5-6.2h1.8v9.3h-2.1v-5.9l-4.3 5.9h-2v-9.3h2.1V45zM119.9 46.2h1.4v.6l-.2 3.3h-1.9l-.1-2h-6.3l-.1 2h-1.9l-.1-3.2v-.6h.4c.2 0 .4-.1.6-.2.2-.1.4-.4.5-.7.3-.6.4-1.3.5-2.2.1-.9.2-1.9.2-2.9v-1.5h7v7.4zm-5.2-2.2c-.2.9-.4 1.7-.6 2.2h3.8v-5.6H115c-.1 1.3-.1 2.5-.3 3.4zM130.2 40.6h-4.9v1.8h4.4v1.8h-4.4v2h5.2v1.9h-7.2v-9.3h7v1.8zM134.8 42.4h4.1v-3.6h2.1v9.3h-2.1v-3.7h-4.1v3.7h-2.1v-9.3h2.1v3.6zM151.4 40.6h-3.2V48h-2.1v-7.4h-3.2v-1.9h8.5v1.9zM159.2 40.7c-.4-.2-.9-.2-1.4-.2-.5 0-.9.1-1.2.2-.4.1-.7.3-.9.6-.3.3-.5.6-.6.9-.1.4-.2.8-.2 1.2 0 .4.1.9.2 1.2.1.4.3.7.6.9.3.3.6.5.9.6.4.1.8.2 1.2.2.5 0 1-.1 1.5-.3.5-.2.9-.4 1.2-.8l1.2 1.5c-1.1 1-2.4 1.5-4 1.5-.7 0-1.4-.1-2-.3-.6-.2-1.1-.6-1.6-1-.4-.4-.8-.9-1-1.5-.2-.6-.4-1.3-.4-2s.1-1.3.4-1.9c.2-.6.6-1.1 1-1.6.4-.4 1-.8 1.6-1.1.6-.3 1.3-.4 2.1-.4.7 0 1.4.1 2 .3.6.2 1.1.5 1.6 1l-1.2 1.5c-.2-.1-.6-.4-1-.5zM165.7 42.3l1-.1 2.6-3.4h2.6l-3.5 4.4 3.8 5h-2.7l-2.8-4h-1v4h-2.1v-9.3h2.1v3.4zM176.2 45l4.5-6.2h1.8v9.3h-2.1v-5.9l-4.3 5.9h-2v-9.3h2.1V45zM189.2 42.1h.1l1.9-3.3h2.6l-3 4.6 3.3 4.7h-2.7l-2.1-3.6h-.1l-2.1 3.6h-2.7l3.3-4.8-3-4.5h2.6l1.9 3.3zM67.7 57.4h-5v7.4h-2.1v-9.3h7.1v1.9zM75.3 55.7c.5.2.8.4 1.2.7.3.3.6.6.8 1.1.2.4.3.9.3 1.4 0 .5-.1 1-.3 1.4-.2.4-.5.8-.8 1.1-.3.3-.8.5-1.2.7-.5.2-1 .2-1.5.2h-1.9v2.5h-2.1v-9.3H74c.3 0 .8.1 1.3.2zm-1.7 4.7c.6 0 1-.1 1.3-.4.3-.3.5-.7.5-1.1 0-.5-.1-.8-.4-1.1-.3-.3-.7-.4-1.3-.4h-2v3.1h1.9zM88.1 64.8h-2.3l-.7-1.8h-4l-.7 1.9h-2.3l3.8-9.3h2.3l3.9 9.2zm-3.7-3.7l-1.2-3.6H83l-1.3 3.6h2.7zM92.1 59.1h4.1v-3.6h2.1v9.3h-2.1v-3.7h-4.1v3.7H90v-9.3h2.1v3.6zM108.7 57.4h-3.2v7.4h-2.1v-7.4h-3.2v-1.9h8.5v1.9zM117 55.6c.6.2 1.1.6 1.6 1 .4.4.8.9 1 1.5.2.6.4 1.2.4 1.9s-.1 1.3-.4 1.9c-.2.6-.6 1.1-1 1.5-.4.4-1 .8-1.6 1-.6.3-1.3.4-2 .4s-1.4-.1-2-.4c-.6-.2-1.1-.6-1.6-1-.4-.4-.8-1-1-1.5-.2-.6-.4-1.2-.4-1.9s.1-1.3.4-1.9c.2-.6.6-1.1 1-1.5.4-.4 1-.8 1.6-1 .6-.3 1.3-.4 2-.4.7.1 1.4.2 2 .4zm-3.2 1.8c-.4.2-.7.4-.9.6l-.6.9c-.1.4-.2.8-.2 1.2 0 .4.1.8.2 1.2.1.4.3.7.6 1 .3.3.6.5.9.6.4.2.8.2 1.2.2.5 0 .9-.1 1.2-.2.4-.2.7-.4.9-.6.2-.3.4-.6.6-1 .1-.4.2-.7.2-1.2 0-.4-.1-.8-.2-1.2-.1-.4-.3-.7-.6-1-.2-.3-.5-.5-.9-.6-.4-.1-.8-.2-1.2-.2-.4 0-.8.1-1.2.3zM128.6 56.2c.6.5.8 1.1.8 1.9 0 .4-.1.7-.2 1-.2.3-.4.5-.7.7v.1c.5.1.8.4 1.1.8.3.4.4.8.4 1.3 0 .4-.1.7-.2 1.1-.1.3-.3.6-.6.9-.3.2-.6.4-1.1.6-.4.1-1 .2-1.5.2h-4.5v-9.3h4.1c1 0 1.8.2 2.4.7zm-2.3 3c.4 0 .6-.1.8-.3.2-.2.3-.4.3-.7 0-.6-.4-.9-1.2-.9h-2.1v1.9h2.2zm.3 3.8c.9 0 1.4-.4 1.4-1.1 0-.4-.1-.6-.4-.8-.2-.2-.6-.3-1-.3h-2.5V63h2.5z"></path></svg>